<?xml version="1.0" standalone="no"?>
<!DOCTYPE svg PUBLIC "-//W3C//DTD SVG 20010904//EN"
 "http://www.w3.org/TR/2001/REC-SVG-20010904/DTD/svg10.dtd">
<svg version="1.0" xmlns="http://www.w3.org/2000/svg"
 width="260.000000pt" height="260.000000pt" viewBox="0 0 260.000000 260.000000"
 preserveAspectRatio="xMidYMid meet">
<metadata>
Created by potrace 1.11, written by Peter Selinger 2001-2013
</metadata>
<g transform="translate(0.000000,260.000000) scale(0.100000,-0.100000)"
fill="#000000" stroke="none">
<path d="M120 2268 c-20 -11 -25 -22 -26 -53 0 -22 2 -428 5 -902 l6 -862 60
-62 60 -61 240 6 c336 8 413 17 502 61 108 53 168 132 203 271 17 66 21 123
26 344 8 371 -8 796 -33 874 -12 40 -24 60 -36 62 -16 2 -17 -3 -11 -44 4 -26
13 -67 20 -92 17 -55 20 -972 4 -1085 -13 -86 -69 -202 -125 -257 -77 -75
-187 -96 -545 -105 l-225 -5 -28 29 -28 30 200 7 c338 12 403 19 476 55 109
54 195 167 226 299 16 65 15 1014 -1 1103 -34 193 -87 263 -258 338 -61 27
-91 33 -200 42 -240 18 -484 22 -512 7z m534 -44 c126 -12 144 -17 201 -49
105 -59 149 -123 191 -284 18 -72 19 -1062 1 -1126 -20 -66 -69 -147 -122
-201 -81 -81 -183 -102 -542 -111 l-242 -6 -5 34 c-3 19 -7 422 -10 896 l-4
862 62 4 c92 6 314 -3 470 -19z"/>
<path d="M493 1992 c-34 -4 -64 -10 -68 -14 -10 -9 -16 -996 -7 -1143 l7 -120
109 -3 c121 -3 188 12 223 51 38 41 43 118 42 617 0 438 -2 478 -19 516 -35
80 -131 112 -287 96z m182 -41 c22 -10 46 -25 53 -34 12 -14 4 -16 -83 -16
-53 0 -99 -3 -104 -5 -4 -3 -23 10 -41 29 l-33 34 39 4 c87 9 131 6 169 -12z
m-168 -640 l0 -578 -23 5 c-13 2 -25 12 -28 21 -5 18 -9 549 -7 930 l1 255 29
-28 29 -28 -1 -577z m247 537 c3 -18 6 -244 7 -503 2 -451 -2 -522 -28 -561
-15 -21 -76 -46 -128 -51 l-53 -6 -6 254 c-4 140 -6 396 -4 569 l3 315 60 6
c138 13 142 13 149 -23z"/>
<path d="M1270 1310 l0 -970 30 0 30 0 0 970 0 970 -30 0 -30 0 0 -970z"/>
<path d="M1735 2260 c-16 -6 -73 -34 -125 -63 -89 -49 -97 -56 -127 -112 -18
-33 -42 -96 -55 -140 -23 -79 -23 -86 -23 -635 0 -527 1 -558 20 -605 37 -95
81 -154 201 -266 111 -105 190 -132 384 -133 155 -1 207 13 322 90 143 94 187
186 195 399 4 106 2 134 -10 150 -9 11 -19 16 -23 12 -5 -4 -2 -12 5 -16 10
-7 12 -38 9 -147 -5 -159 -23 -221 -83 -289 l-35 -40 40 80 c47 93 61 172 52
314 -5 90 -11 109 -33 96 -6 -5 -4 -11 7 -19 14 -11 16 -29 12 -142 -6 -149
-25 -213 -89 -294 -92 -116 -233 -175 -394 -165 -140 9 -226 26 -272 52 -62
34 -59 41 10 26 90 -18 287 -16 368 5 132 35 239 117 295 228 l39 77 0 161 0
161 -45 7 c-78 13 -223 10 -265 -5 l-39 -14 -3 -93 c-4 -132 -12 -152 -80
-190 -49 -28 -63 -31 -102 -26 -64 9 -107 53 -121 125 -6 32 -10 249 -10 533
l0 479 39 41 c36 39 42 42 102 45 120 7 163 -47 162 -202 l-1 -90 59 -60 59
-60 122 -3 c68 -2 141 1 163 5 33 7 41 14 49 42 13 44 -7 256 -28 302 -16 34
-16 34 -10 4 12 -67 17 -315 5 -315 -7 0 -11 34 -11 105 0 110 -13 191 -34
221 -11 15 -11 6 0 -52 7 -38 13 -115 14 -170 0 -87 -3 -103 -17 -108 -9 -4
-65 -6 -124 -5 -106 1 -108 2 -138 33 l-30 31 113 1 c62 0 125 4 141 8 l28 7
-6 142 c-3 87 -11 162 -21 193 -19 62 -93 158 -161 212 -83 65 -118 74 -305
78 -94 2 -178 -1 -195 -6z m367 -40 c39 -10 60 -26 119 -87 107 -113 139 -202
139 -389 l0 -81 -31 -7 c-43 -8 -181 -7 -195 2 -8 4 -11 40 -11 97 1 138 -33
191 -139 215 -107 25 -235 -23 -267 -100 -6 -16 -9 -165 -8 -425 3 -632 3
-625 26 -665 31 -53 84 -75 180 -75 161 1 215 55 220 222 1 48 7 89 14 96 13
13 202 14 222 1 8 -5 10 -45 7 -140 -5 -122 -8 -138 -36 -199 -46 -98 -65
-120 -155 -179 -114 -75 -179 -90 -331 -77 -149 13 -195 32 -276 119 -79 82
-108 145 -121 257 -5 51 -7 288 -5 578 5 541 8 570 72 686 29 54 39 62 179
136 l70 37 140 -5 c77 -3 161 -10 187 -17z m208 -140 c30 -43 18 -37 -16 7
-15 20 -23 33 -16 29 6 -3 21 -20 32 -36z m49 -78 c10 -21 24 -64 30 -97 14
-74 15 -245 1 -245 -6 0 -10 36 -10 88 0 95 -13 192 -34 253 -17 49 -12 50 13
1z m-270 -141 c6 -19 10 -73 10 -120 l-2 -86 -7 100 c-5 63 -14 114 -25 135
-13 26 -13 31 -2 20 8 -8 19 -30 26 -49z m-350 -40 c-4 -29 -11 -56 -15 -60
-6 -6 3 67 13 102 9 35 11 12 2 -42z m0 -866 c-3 -49 -5 99 -5 330 l0 420 6
-330 c3 -181 2 -370 -1 -420z m-312 553 c-3 -7 -5 -2 -5 12 0 14 2 19 5 13 2
-7 2 -19 0 -25z m0 -220 c-2 -13 -4 -5 -4 17 -1 22 1 32 4 23 2 -10 2 -28 0
-40z m988 -399 c-1 -133 -1 -135 -36 -209 -20 -41 -46 -86 -58 -100 -17 -18
-13 -7 12 40 44 81 57 151 57 298 0 86 3 113 13 109 9 -3 12 -39 12 -138z
m-308 24 c-5 -81 -10 -110 -23 -122 -15 -15 -16 -14 -9 4 15 39 24 101 25 163
0 34 3 62 7 62 3 0 3 -48 0 -107z m-360 -95 c-3 -8 -6 -5 -6 6 -1 11 2 17 5
13 3 -3 4 -12 1 -19z"/>
<path d="M1889 1857 c-31 -17 -50 -37 -67 -69 l-23 -45 2 -384 c1 -211 1 -418
0 -460 -1 -47 2 -80 8 -84 7 -4 11 5 12 22 l1 28 10 -27 c5 -16 13 -28 18 -28
4 0 7 208 5 463 -2 423 -1 466 15 504 21 49 54 73 110 80 53 7 51 23 -3 23
-27 0 -61 -9 -88 -23z m-21 -44 c-25 -30 -31 -54 -38 -153 l-7 -95 -1 87 c-2
88 7 129 35 160 21 23 31 23 11 1z m-36 -683 c2 -124 1 -205 -3 -180 -7 43
-10 451 -3 420 1 -8 4 -116 6 -240z"/>
</g>
</svg>
