<?xml version="1.0" encoding="iso-8859-1"?>
<!-- Generator: Adobe Illustrator 19.0.0, SVG Export Plug-In . SVG Version: 6.00 Build 0)  -->
<svg version="1.1" id="Capa_1" xmlns="http://www.w3.org/2000/svg" xmlns:xlink="http://www.w3.org/1999/xlink" x="0px" y="0px"
	 viewBox="0 0 512 512" style="enable-background:new 0 0 512 512;" xml:space="preserve">
<g>
	<path style="fill:#AA3DC8;" d="M467,151H165c-24.813,0-45-20.187-45-45s20.187-45,45-45h302c24.813,0,45,20.187,45,45
		S491.813,151,467,151z M165,91c-8.271,0-15,6.729-15,15s6.729,15,15,15h302c8.271,0,15-6.729,15-15s-6.729-15-15-15H165z"/>
	<path style="fill:#AA3DC8;" d="M467,301H165c-24.813,0-45-20.187-45-45s20.187-45,45-45h302c24.813,0,45,20.187,45,45
		S491.813,301,467,301z M165,241c-8.271,0-15,6.729-15,15s6.729,15,15,15h302c8.271,0,15-6.729,15-15s-6.729-15-15-15H165z"/>
	<path style="fill:#AA3DC8;" d="M467,451H165c-24.813,0-45-20.187-45-45s20.187-45,45-45h302c24.813,0,45,20.187,45,45
		S491.813,451,467,451z M165,391c-8.271,0-15,6.729-15,15s6.729,15,15,15h302c8.271,0,15-6.729,15-15s-6.729-15-15-15H165z"/>
	<path style="fill:#AA3DC8;" d="M45,151c-24.813,0-45-20.187-45-45s20.187-45,45-45s45,20.187,45,45S69.813,151,45,151z M45,91
		c-8.271,0-15,6.729-15,15s6.729,15,15,15s15-6.729,15-15S53.271,91,45,91z"/>
	<path style="fill:#AA3DC8;" d="M45,301c-24.813,0-45-20.187-45-45s20.187-45,45-45s45,20.187,45,45S69.813,301,45,301z M45,241
		c-8.271,0-15,6.729-15,15s6.729,15,15,15s15-6.729,15-15S53.271,241,45,241z"/>
	<path style="fill:#AA3DC8;" d="M45,451c-24.813,0-45-20.187-45-45s20.187-45,45-45s45,20.187,45,45S69.813,451,45,451z M45,391
		c-8.271,0-15,6.729-15,15s6.729,15,15,15s15-6.729,15-15S53.271,391,45,391z"/>
</g>
<g>
</g>
<g>
</g>
<g>
</g>
<g>
</g>
<g>
</g>
<g>
</g>
<g>
</g>
<g>
</g>
<g>
</g>
<g>
</g>
<g>
</g>
<g>
</g>
<g>
</g>
<g>
</g>
<g>
</g>
</svg>
